<svg width="16" height="14" viewBox="0 0 16 14" fill="none" xmlns="http://www.w3.org/2000/svg">
<path d="M6.53451 13.0184L1.25098 7.73489C1.05335 7.53644 0.942383 7.26778 0.942383 6.98771C0.942383 6.70764 1.05335 6.43898 1.25098 6.24053L6.53451 0.957003C6.73656 0.77923 6.99873 0.685067 7.26772 0.693655C7.53671 0.702243 7.79233 0.812937 7.98263 1.00324C8.17293 1.19354 8.28363 1.44916 8.29221 1.71815C8.3008 1.98714 8.20664 2.2493 8.02887 2.45136L4.54887 5.93136H14.679C14.8234 5.92221 14.9681 5.94275 15.1043 5.99172C15.2404 6.04069 15.3651 6.11704 15.4706 6.21606C15.5761 6.31508 15.6601 6.43467 15.7176 6.56745C15.7751 6.70023 15.8047 6.84338 15.8047 6.98806C15.8047 7.13275 15.7751 7.2759 15.7176 7.40867C15.6601 7.54145 15.5761 7.66104 15.4706 7.76006C15.3651 7.85909 15.2404 7.93544 15.1043 7.9844C14.9681 8.03337 14.8234 8.05391 14.679 8.04477H4.54887L8.02887 11.5248C8.13753 11.6204 8.22544 11.7372 8.28716 11.8682C8.34889 11.9991 8.38311 12.1413 8.38773 12.2859C8.39235 12.4306 8.36726 12.5747 8.31402 12.7092C8.26077 12.8438 8.18049 12.9661 8.07815 13.0684C7.97581 13.1707 7.85357 13.251 7.71898 13.3043C7.5844 13.3575 7.44032 13.3826 7.29566 13.378C7.151 13.3734 7.00882 13.3391 6.8779 13.2774C6.74699 13.2157 6.63012 13.1278 6.53451 13.0191V13.0184Z" fill="#8E9AAB"/>
</svg>
