<svg width="20" height="21" viewBox="0 0 20 21" fill="none" xmlns="http://www.w3.org/2000/svg">
<path d="M8.50662 9.10669C8.12157 9.49188 7.9053 10.0142 7.9054 10.5589C7.90549 11.1035 8.12194 11.6258 8.50713 12.0109C8.89232 12.3959 9.41469 12.6122 9.95934 12.6121C10.504 12.612 11.0263 12.3956 11.4113 12.0104" stroke="#A3ABA8" stroke-width="1.28165" stroke-linecap="round" stroke-linejoin="round"/>
<path d="M14.7665 15.357C13.326 16.2583 11.6586 16.731 9.95933 16.7197C6.26227 16.7197 3.18138 14.6658 0.716675 10.558C2.02297 8.38084 3.5018 6.78084 5.15315 5.75799M8.09026 4.5811C8.70545 4.45656 9.33166 4.39462 9.95933 4.39624C13.6564 4.39624 16.7373 6.45016 19.202 10.558C18.518 11.6979 17.7858 12.6807 17.0063 13.5054M0.716675 1.31537L19.202 19.8006" stroke="#A3ABA8" stroke-width="1.28165" stroke-linecap="round" stroke-linejoin="round"/>
</svg>
