<svg width="57" height="43" viewBox="0 0 57 43" fill="none" xmlns="http://www.w3.org/2000/svg">
<path fill-rule="evenodd" clip-rule="evenodd" d="M35.3282 8.26543C35.3282 12.0019 32.2992 15.0309 28.5627 15.0309C24.8263 15.0309 21.7973 12.0019 21.7973 8.26543C21.7973 4.52899 24.8263 1.5 28.5627 1.5C32.2992 1.5 35.3282 4.52899 35.3282 8.26543Z" stroke="black" stroke-width="2" stroke-linecap="round" stroke-linejoin="round"/>
<path fill-rule="evenodd" clip-rule="evenodd" d="M42.0925 32.1937C42.0925 37.3212 36.0336 41.5001 28.5617 41.5001C21.0898 41.5001 15.0308 37.3326 15.0308 32.1937C15.0308 27.0548 21.0898 22.8901 28.5617 22.8901C36.0336 22.8901 42.0925 27.0548 42.0925 32.1937Z" stroke="black" stroke-width="2" stroke-linecap="round" stroke-linejoin="round"/>
<path fill-rule="evenodd" clip-rule="evenodd" d="M49.6397 14.4696C49.6686 16.1176 48.6982 17.6195 47.1839 18.2703C45.6695 18.9211 43.912 18.5916 42.7363 17.4365C41.5605 16.2813 41.2 14.5299 41.8239 13.0043C42.4478 11.4787 43.9322 10.4818 45.5805 10.4816C47.8024 10.4626 49.6194 12.2477 49.6397 14.4696V14.4696Z" stroke="black" stroke-width="2" stroke-linecap="round" stroke-linejoin="round"/>
<path fill-rule="evenodd" clip-rule="evenodd" d="M7.48153 14.4696C7.45262 16.1176 8.42308 17.6195 9.9374 18.2703C11.4517 18.9211 13.2092 18.5916 14.385 17.4365C15.5607 16.2813 15.9213 14.5299 15.2974 13.0043C14.6735 11.4787 13.189 10.4818 11.5408 10.4816C9.31887 10.4626 7.50189 12.2477 7.48153 14.4696Z" stroke="black" stroke-width="2" stroke-linecap="round" stroke-linejoin="round"/>
<path d="M47.595 37.8463C47.045 37.7971 46.5591 38.2031 46.5098 38.7532C46.4606 39.3032 46.8666 39.7891 47.4167 39.8384L47.595 37.8463ZM55.6244 32.1937L56.6184 32.3026C56.6264 32.2301 56.6264 32.1569 56.6184 32.0844L55.6244 32.1937ZM47.4166 24.5519C46.8666 24.6012 46.4606 25.0871 46.5098 25.6371C46.5591 26.1872 47.045 26.5932 47.5951 26.5439L47.4166 24.5519ZM9.7077 39.8384C10.2578 39.7891 10.6638 39.3032 10.6145 38.7532C10.5653 38.2031 10.0794 37.7971 9.52933 37.8463L9.7077 39.8384ZM1.5 32.1937L0.505989 32.0844C0.498018 32.1569 0.498004 32.2301 0.505947 32.3026L1.5 32.1937ZM9.52929 26.5439C10.0794 26.5932 10.5652 26.1872 10.6145 25.6371C10.6638 25.0871 10.2578 24.6012 9.70774 24.5519L9.52929 26.5439ZM47.4167 39.8384C52.0241 40.2509 56.1147 36.901 56.6184 32.3026L54.6303 32.0848C54.2452 35.6005 51.1177 38.1618 47.595 37.8463L47.4167 39.8384ZM56.6184 32.0844C56.113 27.4874 52.023 24.1393 47.4166 24.5519L47.5951 26.5439C51.1169 26.2284 54.244 28.7882 54.6304 32.303L56.6184 32.0844ZM9.52933 37.8463C6.00666 38.1618 2.87921 35.6005 2.49405 32.0848L0.505947 32.3026C1.00971 36.901 5.10025 40.2509 9.7077 39.8384L9.52933 37.8463ZM2.49401 32.303C2.8804 28.7882 6.00748 26.2284 9.52929 26.5439L9.70774 24.5519C5.10142 24.1393 1.01137 27.4874 0.505989 32.0844L2.49401 32.303Z" fill="black"/>
</svg>
