<svg width="60" height="60" viewBox="0 0 60 60" fill="none" xmlns="http://www.w3.org/2000/svg">
<path fill-rule="evenodd" clip-rule="evenodd" d="M36.8282 16.7654C36.8282 20.5019 33.7992 23.5309 30.0628 23.5309C26.3264 23.5309 23.2974 20.5019 23.2974 16.7654C23.2974 13.029 26.3264 10 30.0628 10C33.7992 10 36.8282 13.029 36.8282 16.7654Z" stroke="#231F20" stroke-width="2" stroke-linecap="round" stroke-linejoin="round"/>
<path fill-rule="evenodd" clip-rule="evenodd" d="M43.5925 40.6932C43.5925 45.8207 37.5335 49.9996 30.0616 49.9996C22.5897 49.9996 16.5308 45.8321 16.5308 40.6932C16.5308 35.5543 22.5897 31.3896 30.0616 31.3896C37.5335 31.3896 43.5925 35.5543 43.5925 40.6932Z" stroke="#231F20" stroke-width="2" stroke-linecap="round" stroke-linejoin="round"/>
<path fill-rule="evenodd" clip-rule="evenodd" d="M51.1395 22.9696C51.1684 24.6176 50.198 26.1195 48.6836 26.7703C47.1693 27.4211 45.4118 27.0916 44.2361 25.9365C43.0603 24.7813 42.6998 23.0299 43.3236 21.5043C43.9475 19.9787 45.432 18.9818 47.0802 18.9816C49.3022 18.9626 51.1191 20.7477 51.1395 22.9696V22.9696Z" stroke="#231F20" stroke-width="2" stroke-linecap="round" stroke-linejoin="round"/>
<path fill-rule="evenodd" clip-rule="evenodd" d="M8.98159 22.9696C8.95267 24.6176 9.92313 26.1195 11.4375 26.7703C12.9518 27.4211 14.7093 27.0916 15.885 25.9365C17.0608 24.7813 17.4213 23.0299 16.7974 21.5043C16.1735 19.9787 14.6891 18.9818 13.0408 18.9816C10.8189 18.9626 9.00195 20.7477 8.98159 22.9696Z" stroke="#231F20" stroke-width="2" stroke-linecap="round" stroke-linejoin="round"/>
<path d="M49.095 46.3463C48.545 46.2971 48.0591 46.7031 48.0098 47.2532C47.9606 47.8032 48.3666 48.2891 48.9167 48.3384L49.095 46.3463ZM57.1244 40.6937L58.1184 40.8026C58.1264 40.7301 58.1264 40.6569 58.1184 40.5844L57.1244 40.6937ZM48.9166 33.0519C48.3666 33.1012 47.9606 33.5871 48.0098 34.1371C48.0591 34.6872 48.545 35.0932 49.0951 35.0439L48.9166 33.0519ZM11.2077 48.3384C11.7578 48.2891 12.1638 47.8032 12.1145 47.2532C12.0653 46.7031 11.5794 46.2971 11.0293 46.3463L11.2077 48.3384ZM3 40.6937L2.00599 40.5844C1.99802 40.6569 1.998 40.7301 2.00595 40.8026L3 40.6937ZM11.0293 35.0439C11.5794 35.0932 12.0652 34.6872 12.1145 34.1371C12.1638 33.5871 11.7578 33.1012 11.2077 33.0519L11.0293 35.0439ZM48.9167 48.3384C53.5241 48.7509 57.6147 45.401 58.1184 40.8026L56.1303 40.5848C55.7452 44.1005 52.6177 46.6618 49.095 46.3463L48.9167 48.3384ZM58.1184 40.5844C57.613 35.9874 53.523 32.6393 48.9166 33.0519L49.0951 35.0439C52.6169 34.7284 55.744 37.2882 56.1304 40.803L58.1184 40.5844ZM11.0293 46.3463C7.50666 46.6618 4.37921 44.1005 3.99405 40.5848L2.00595 40.8026C2.50971 45.401 6.60025 48.7509 11.2077 48.3384L11.0293 46.3463ZM3.99401 40.803C4.3804 37.2882 7.50748 34.7284 11.0293 35.0439L11.2077 33.0519C6.60142 32.6393 2.51137 35.9874 2.00599 40.5844L3.99401 40.803Z" fill="#231F20"/>
</svg>
