<svg width="60" height="60" viewBox="0 0 60 60" fill="none" xmlns="http://www.w3.org/2000/svg">
<path fill-rule="evenodd" clip-rule="evenodd" d="M30.0003 11.9987C30.0003 16.9686 25.9715 20.9974 21.0016 20.9974C16.0318 20.9974 12.0029 16.9686 12.0029 11.9987C12.0029 7.02886 16.0318 3 21.0016 3C25.9715 3 30.0003 7.02886 30.0003 11.9987Z" stroke="black" stroke-width="2" stroke-linecap="round" stroke-linejoin="round"/>
<path fill-rule="evenodd" clip-rule="evenodd" d="M38.9987 44.3984C38.9987 51.3413 30.9411 56.9997 20.9974 56.9997C11.0537 56.9997 3 51.3567 3 44.3984C3 37.4402 11.0576 31.801 21.0013 31.801C30.945 31.801 38.9987 37.4402 38.9987 44.3984Z" stroke="black" stroke-width="2" stroke-linecap="round" stroke-linejoin="round"/>
<path fill-rule="evenodd" clip-rule="evenodd" d="M49.05 20.4C49.05 23.3823 46.6323 25.8 43.65 25.8C40.6677 25.8 38.25 23.3823 38.25 20.4C38.25 17.4177 40.6677 15 43.65 15C45.0822 15 46.4557 15.5689 47.4684 16.5816C48.4811 17.5943 49.05 18.9678 49.05 20.4Z" stroke="black" stroke-width="2" stroke-linecap="round" stroke-linejoin="round"/>
<path d="M46.2012 53.4012C51.6542 53.8489 56.4597 49.8432 57.0012 44.3986C56.4578 38.9556 51.6529 34.9521 46.2012 35.3999" stroke="black" stroke-width="2" stroke-linecap="round" stroke-linejoin="round"/>
</svg>
