<svg width="18" height="13" viewBox="0 0 18 13" fill="none" xmlns="http://www.w3.org/2000/svg">
<path d="M16.3042 4.88248C17.2319 5.85854 17.2319 7.34146 16.3042 8.31752C14.7396 9.96373 12.0524 12.2 9 12.2C5.94759 12.2 3.26039 9.96373 1.69576 8.31752C0.768079 7.34146 0.768078 5.85854 1.69576 4.88248C3.26039 3.23627 5.94759 1 9 1C12.0524 1 14.7396 3.23627 16.3042 4.88248Z" stroke="black" stroke-width="1.5"/>
<path d="M11.4 6.6C11.4 7.92548 10.3255 9 9 9C7.67452 9 6.6 7.92548 6.6 6.6C6.6 5.27452 7.67452 4.2 9 4.2C10.3255 4.2 11.4 5.27452 11.4 6.6Z" stroke="black" stroke-width="1.5"/>
</svg>
