<svg width="40" height="41" viewBox="0 0 40 41" fill="none" xmlns="http://www.w3.org/2000/svg">
<g filter="url(#filter0_b_58_299)">
<rect y="0.5" width="40" height="40" rx="6" fill="#231F20" fill-opacity="0.4"/>
<path d="M16 11.5H13C12.4696 11.5 11.9609 11.7107 11.5858 12.0858C11.2107 12.4609 11 12.9696 11 13.5V16.5M29 16.5V13.5C29 12.9696 28.7893 12.4609 28.4142 12.0858C28.0391 11.7107 27.5304 11.5 27 11.5H24M24 29.5H27C27.5304 29.5 28.0391 29.2893 28.4142 28.9142C28.7893 28.5391 29 28.0304 29 27.5V24.5M11 24.5V27.5C11 28.0304 11.2107 28.5391 11.5858 28.9142C11.9609 29.2893 12.4696 29.5 13 29.5H16" stroke="white" stroke-width="2" stroke-linecap="round" stroke-linejoin="round"/>
</g>
<defs>
<filter id="filter0_b_58_299" x="-4" y="-3.5" width="48" height="48" filterUnits="userSpaceOnUse" color-interpolation-filters="sRGB">
<feFlood flood-opacity="0" result="BackgroundImageFix"/>
<feGaussianBlur in="BackgroundImageFix" stdDeviation="2"/>
<feComposite in2="SourceAlpha" operator="in" result="effect1_backgroundBlur_58_299"/>
<feBlend mode="normal" in="SourceGraphic" in2="effect1_backgroundBlur_58_299" result="shape"/>
</filter>
</defs>
</svg>
