<svg width="24" height="24" viewBox="0 0 24 24" fill="none" xmlns="http://www.w3.org/2000/svg">
<path fill-rule="evenodd" clip-rule="evenodd" d="M12 4.99957C12 6.65618 10.657 7.99914 9.00042 7.99914C7.34381 7.99914 6.00085 6.65618 6.00085 4.99957C6.00085 3.34295 7.34381 2 9.00042 2C10.657 2 12 3.34295 12 4.99957Z" stroke="black" stroke-width="1.5" stroke-linecap="round" stroke-linejoin="round"/>
<path fill-rule="evenodd" clip-rule="evenodd" d="M14.9996 15.7995C14.9996 18.1138 12.3137 19.9999 8.99914 19.9999C5.68457 19.9999 3 18.1189 3 15.7995C3 13.4801 5.68585 11.6003 9.00042 11.6003C12.315 11.6003 14.9996 13.4801 14.9996 15.7995Z" stroke="black" stroke-width="1.5" stroke-linecap="round" stroke-linejoin="round"/>
<path fill-rule="evenodd" clip-rule="evenodd" d="M18.35 7.8C18.35 8.79411 17.5441 9.6 16.55 9.6C15.5559 9.6 14.75 8.79411 14.75 7.8C14.75 6.80589 15.5559 6 16.55 6C17.0274 6 17.4852 6.18964 17.8228 6.52721C18.1604 6.86477 18.35 7.32261 18.35 7.8Z" stroke="black" stroke-width="1.5" stroke-linecap="round" stroke-linejoin="round"/>
<path d="M17.4003 18.8004C19.218 18.9496 20.8198 17.6144 21.0003 15.7995C20.8191 13.9852 19.2175 12.6507 17.4003 12.8" stroke="black" stroke-width="1.5" stroke-linecap="round" stroke-linejoin="round"/>
</svg>
