<svg width="24" height="25" viewBox="0 0 24 25" fill="none" xmlns="http://www.w3.org/2000/svg">
<path d="M18 13L19.2929 11.7071C19.6834 11.3166 19.6834 10.6834 19.2929 10.2929L18 9" stroke="#28303F" stroke-width="1.5" stroke-linecap="round" stroke-linejoin="round"/>
<path d="M19 11L13 11M4 16.2663V6.26633M16 16.2663C16 17.3709 15.1046 18.2663 14 18.2663H10M16 6.26633C16 5.16176 15.1046 4.26633 14 4.26633H10M4.8906 18.8601L6.8906 20.1934C8.21971 21.0795 10 20.1267 10 18.5293V4.00336C10 2.40597 8.21971 1.45319 6.8906 2.33926L4.8906 3.6726C4.3342 4.04353 4 4.66799 4 5.3367V17.196C4 17.8647 4.3342 18.4891 4.8906 18.8601Z" stroke="#28303F" stroke-width="1.5" stroke-linecap="round"/>
</svg>
