<svg width="24" height="24" viewBox="0 0 24 24" fill="none" xmlns="http://www.w3.org/2000/svg">
<path opacity="0.6" d="M20.8401 6.11183C20.3294 5.60083 19.7229 5.19547 19.0555 4.91891C18.388 4.64235 17.6726 4.5 16.9501 4.5C16.2276 4.5 15.5122 4.64235 14.8448 4.91891C14.1773 5.19547 13.5709 5.60083 13.0601 6.11183L12.0001 7.17183L10.9401 6.11183C9.90843 5.08013 8.50915 4.50053 7.05012 4.50053C5.59109 4.50053 4.19181 5.08013 3.16012 6.11183C2.12843 7.14352 1.54883 8.54279 1.54883 10.0018C1.54883 11.4609 2.12843 12.8601 3.16012 13.8918L4.22012 14.9518L12.0001 22.7318L19.7801 14.9518L20.8401 13.8918C21.3511 13.3811 21.7565 12.7746 22.033 12.1072C22.3096 11.4397 22.4519 10.7243 22.4519 10.0018C22.4519 9.27934 22.3096 8.56393 22.033 7.89647C21.7565 7.22901 21.3511 6.62258 20.8401 6.11183V6.11183Z" stroke="#231F20" stroke-width="1.5" stroke-linecap="round" stroke-linejoin="round"/>
</svg>
