<svg width="22" height="14" viewBox="0 0 22 14" fill="none" xmlns="http://www.w3.org/2000/svg">
<path d="M11 0.0400391C9.54776 0.0400391 8.36 1.2278 8.36 2.68004C8.36 2.80734 8.41057 2.92943 8.50059 3.01945C8.59061 3.10947 8.7127 3.16004 8.84 3.16004C8.96731 3.16004 9.0894 3.10947 9.17941 3.01945C9.26943 2.92943 9.32 2.80734 9.32 2.68004C9.32 1.74644 10.0664 1.00004 11 1.00004C11.9336 1.00004 12.68 1.74644 12.68 2.68004C12.68 3.02948 12.5924 3.24644 12.4326 3.47516C12.2727 3.70364 12.0267 3.93116 11.75 4.19516C11.2626 4.6598 10.6818 5.30204 10.55 6.32492C10.0352 6.42212 9.62 6.67436 9.29744 6.97004C8.88584 7.34732 8.58464 7.77284 8.26256 8.09516C8.2548 8.10235 8.24727 8.10979 8.24 8.11748C7.57592 8.86244 5.69864 9.44084 3.95744 10.1052C3.08696 10.4371 2.2472 10.8076 1.58744 11.3275C0.927922 11.8473 0.440002 12.5769 0.440002 13.48C0.440002 13.6073 0.490574 13.7294 0.580591 13.8195C0.670609 13.9095 0.792699 13.96 0.920002 13.96H21.08C21.2073 13.96 21.3294 13.9095 21.4194 13.8195C21.5094 13.7294 21.56 13.6073 21.56 13.48C21.56 12.5769 21.0721 11.8473 20.4126 11.3275C19.7528 10.8076 18.913 10.4371 18.0426 10.1049C16.3014 9.44084 14.4241 8.86244 13.76 8.11772C13.7527 8.10995 13.7452 8.10243 13.7374 8.09516C13.4151 7.77284 13.1142 7.34732 12.7026 6.97004C12.3922 6.68564 11.9979 6.44492 11.51 6.34004C11.612 5.66036 11.9672 5.30708 12.41 4.88492C12.6733 4.63388 12.9673 4.37348 13.2126 4.0226C13.4576 3.67172 13.64 3.22316 13.64 2.68004C13.64 1.2278 12.4522 0.0400391 11 0.0400391ZM11 7.24004C11.4721 7.24004 11.749 7.39988 12.0574 7.6826C12.3594 7.95908 12.655 8.36516 13.04 8.75492C13.0467 8.7626 13.0556 8.7698 13.0626 8.77748C14.0962 9.91436 16.0405 10.3699 17.7049 11.0052C18.543 11.3246 19.304 11.6784 19.82 12.0852C20.1742 12.364 20.3674 12.664 20.48 13H1.52C1.63256 12.664 1.82576 12.3643 2.18 12.0849C2.696 11.6784 3.45704 11.3246 4.29512 11.0049C5.95952 10.3699 7.90376 9.91436 8.93744 8.77772C8.94224 8.77244 8.948 8.76764 8.95256 8.7626L8.96 8.75492C9.3452 8.36516 9.64064 7.95908 9.94256 7.6826C10.251 7.39988 10.5282 7.24004 11 7.24004Z" fill="#7B7979"/>
</svg>
