<svg width="24" height="18" viewBox="0 0 24 18" fill="none" xmlns="http://www.w3.org/2000/svg">
<path fill-rule="evenodd" clip-rule="evenodd" d="M14.5312 3.70617C14.5312 5.20075 13.3196 6.41234 11.8251 6.41234C10.3305 6.41234 9.1189 5.20075 9.1189 3.70617C9.1189 2.21159 10.3305 1 11.8251 1C13.3196 1 14.5312 2.21159 14.5312 3.70617Z" stroke="white" stroke-width="1.5" stroke-linecap="round" stroke-linejoin="round"/>
<path fill-rule="evenodd" clip-rule="evenodd" d="M17.237 13.2776C17.237 15.3286 14.8135 17.0001 11.8247 17.0001C8.83594 17.0001 6.41235 15.3331 6.41235 13.2776C6.41235 11.222 8.83594 9.55615 11.8247 9.55615C14.8135 9.55615 17.237 11.222 17.237 13.2776Z" stroke="white" stroke-width="1.5" stroke-linecap="round" stroke-linejoin="round"/>
<path fill-rule="evenodd" clip-rule="evenodd" d="M20.2559 6.18781C20.2674 6.847 19.8793 7.44775 19.2735 7.70807C18.6678 7.96839 17.9648 7.83659 17.4945 7.37454C17.0242 6.91249 16.88 6.21193 17.1295 5.60169C17.3791 4.99145 17.9729 4.59269 18.6322 4.59259C19.5209 4.585 20.2477 5.29904 20.2559 6.18781V6.18781Z" stroke="white" stroke-width="1.5" stroke-linecap="round" stroke-linejoin="round"/>
<path fill-rule="evenodd" clip-rule="evenodd" d="M3.39259 6.18781C3.38102 6.847 3.7692 7.44775 4.37493 7.70807C4.98066 7.96839 5.68367 7.83659 6.15397 7.37454C6.62427 6.91249 6.76849 6.21193 6.51893 5.60169C6.26937 4.99145 5.67559 4.59269 5.01629 4.59259C4.12752 4.585 3.40073 5.29904 3.39259 6.18781Z" stroke="white" stroke-width="1.5" stroke-linecap="round" stroke-linejoin="round"/>
<path d="M19.4692 15.1898C19.0567 15.1529 18.6923 15.4574 18.6553 15.87C18.6184 16.2825 18.9229 16.6469 19.3355 16.6839L19.4692 15.1898ZM22.6498 13.2774L23.3953 13.3591C23.4012 13.3047 23.4012 13.2498 23.3953 13.1954L22.6498 13.2774ZM19.3354 9.87206C18.9229 9.90902 18.6184 10.2734 18.6553 10.686C18.6923 11.0986 19.0567 11.403 19.4693 11.3661L19.3354 9.87206ZM4.3143 16.6839C4.72686 16.6469 5.03136 16.2825 4.99442 15.87C4.95748 15.4574 4.59308 15.1529 4.18052 15.1898L4.3143 16.6839ZM1 13.2774L0.254491 13.1954C0.248513 13.2498 0.248503 13.3047 0.25446 13.3591L1 13.2774ZM4.18049 11.3661C4.59305 11.403 4.95746 11.0986 4.99442 10.686C5.03137 10.2734 4.72689 9.90902 4.31433 9.87206L4.18049 11.3661ZM19.3355 16.6839C21.3683 16.8659 23.173 15.3879 23.3953 13.3591L21.9042 13.1957C21.7709 14.4125 20.6885 15.299 19.4692 15.1898L19.3355 16.6839ZM23.3953 13.1954C23.1723 11.1672 21.3677 9.69 19.3354 9.87206L19.4693 11.3661C20.6882 11.2569 21.7705 12.1429 21.9042 13.3593L23.3953 13.1954ZM4.18052 15.1898C2.96129 15.299 1.87884 14.4125 1.74554 13.1957L0.25446 13.3591C0.47672 15.3879 2.28148 16.8659 4.3143 16.6839L4.18052 15.1898ZM1.74551 13.3593C1.87924 12.1429 2.96156 11.2569 4.18049 11.3661L4.31433 9.87206C2.282 9.69 0.477465 11.1672 0.254491 13.1954L1.74551 13.3593Z" fill="white"/>
</svg>
