<svg width="24" height="24" viewBox="0 0 24 24" fill="none" xmlns="http://www.w3.org/2000/svg">
<circle opacity="0.35" cx="12" cy="12" r="12" fill="#231F20"/>
<path opacity="0.6" d="M17.8933 8.07455C17.5528 7.73389 17.1485 7.46365 16.7036 7.27927C16.2586 7.0949 15.7817 7 15.3 7C14.8183 7 14.3414 7.0949 13.8964 7.27927C13.4515 7.46365 13.0472 7.73389 12.7067 8.07455L12 8.78122L11.2933 8.07455C10.6055 7.38676 9.67269 7.00036 8.7 7.00036C7.72731 7.00036 6.79446 7.38676 6.10666 8.07455C5.41887 8.76235 5.03247 9.69519 5.03247 10.6679C5.03247 11.6406 5.41887 12.5734 6.10666 13.2612L6.81333 13.9679L12 19.1545L17.1867 13.9679L17.8933 13.2612C18.234 12.9207 18.5042 12.5164 18.6886 12.0715C18.873 11.6265 18.9679 11.1495 18.9679 10.6679C18.9679 10.1862 18.873 9.70929 18.6886 9.26431C18.5042 8.81934 18.234 8.41505 17.8933 8.07455V8.07455Z" stroke="#FF0000" stroke-width="1.5" stroke-linecap="round" stroke-linejoin="round"/>
</svg>
