<svg width="18" height="15" viewBox="0 0 18 15" fill="none" xmlns="http://www.w3.org/2000/svg">
<path d="M17 1.72559V6.08922H12.6364" stroke="black" stroke-width="1.5" stroke-linecap="round" stroke-linejoin="round"/>
<path d="M1 13.3619V8.99829H5.36364" stroke="black" stroke-width="1.5" stroke-linecap="round" stroke-linejoin="round"/>
<path d="M2.82545 5.36192C3.1943 4.31958 3.82119 3.38766 4.64761 2.65313C5.47404 1.91859 6.47307 1.40538 7.55148 1.16138C8.6299 0.917371 9.75255 0.950528 10.8147 1.25775C11.8768 1.56497 12.8438 2.13625 13.6255 2.91828L17 6.08919M1 8.99828L4.37455 12.1692C5.15618 12.9512 6.12318 13.5225 7.18532 13.8297C8.24745 14.1369 9.3701 14.1701 10.4485 13.9261C11.5269 13.6821 12.526 13.1689 13.3524 12.4343C14.1788 11.6998 14.8057 10.7679 15.1745 9.72555" stroke="black" stroke-width="1.5" stroke-linecap="round" stroke-linejoin="round"/>
</svg>
