<svg width="159" height="159" viewBox="0 0 159 159" fill="none" xmlns="http://www.w3.org/2000/svg">
<path d="M135.569 35.405C133.803 33.6367 130.939 33.6336 129.174 35.3975L74.9176 89.5105L55.3422 68.2496C53.6507 66.4135 50.7908 66.2945 48.9517 67.9857C47.114 69.6772 46.9963 72.5384 48.6878 74.3762L71.4517 99.0983C72.2854 100.004 73.4521 100.531 74.6823 100.556C74.7154 100.558 74.7473 100.558 74.7789 100.558C75.9744 100.558 77.1245 100.083 77.9718 99.2384L135.56 41.8013C137.33 40.0377 137.333 37.1734 135.569 35.405Z" fill="black"/>
<path d="M134.477 74.4773C131.979 74.4773 129.955 76.5018 129.955 79C129.955 107.098 107.098 129.955 79 129.955C50.9041 129.955 28.0452 107.098 28.0452 79C28.0452 50.9041 50.9041 28.0452 79 28.0452C81.498 28.0452 83.5227 26.0207 83.5227 23.5227C83.5227 21.0245 81.498 19 79 19C45.9156 19 19 45.9156 19 79C19 112.083 45.9156 139 79 139C112.083 139 139 112.083 139 79C139 76.502 136.975 74.4773 134.477 74.4773Z" fill="#91969D"/>
</svg>
