<svg width="24" height="24" viewBox="0 0 24 24" fill="none" xmlns="http://www.w3.org/2000/svg">
<circle opacity="0.35" cx="11.9999" cy="12" r="12" fill="#231F20"/>
<g clip-path="url(#clip0_62_874)">
<path opacity="0.6" d="M17.8932 8.07455C17.5527 7.73389 17.1484 7.46365 16.7034 7.27927C16.2585 7.0949 15.7815 7 15.2999 7C14.8182 7 14.3413 7.0949 13.8963 7.27927C13.4513 7.46365 13.047 7.73389 12.7065 8.07455L11.9999 8.78122L11.2932 8.07455C10.6054 7.38676 9.67256 7.00036 8.69988 7.00036C7.72719 7.00036 6.79434 7.38676 6.10654 8.07455C5.41875 8.76235 5.03235 9.69519 5.03235 10.6679C5.03235 11.6406 5.41875 12.5734 6.10654 13.2612L6.81321 13.9679L11.9999 19.1545L17.1865 13.9679L17.8932 13.2612C18.2339 12.9207 18.5041 12.5164 18.6885 12.0715C18.8729 11.6265 18.9678 11.1495 18.9678 10.6679C18.9678 10.1862 18.8729 9.70929 18.6885 9.26431C18.5041 8.81934 18.2339 8.41505 17.8932 8.07455V8.07455Z" stroke="white" stroke-width="1.5" stroke-linecap="round" stroke-linejoin="round"/>
</g>
<defs>
<clipPath id="clip0_62_874">
<rect width="16" height="16" fill="white" transform="translate(3.99988 4)"/>
</clipPath>
</defs>
</svg>
