<svg width="57" height="56" viewBox="0 0 57 56" fill="none" xmlns="http://www.w3.org/2000/svg">
<g clip-path="url(#clip0_62_1013)">
<path d="M45.0893 4.16113H19.3994V14.8145H50.576V9.64569C50.576 6.62122 48.1146 4.16113 45.0893 4.16113Z" fill="#2E2E2F"/>
<path d="M30.5469 16.4537H0.5V6.56848C0.5 2.94629 3.44757 0 7.07104 0H16.6781C17.633 0 18.5529 0.201233 19.3885 0.579346C20.5558 1.10529 21.5585 1.97217 22.2618 3.1048L30.5469 16.4537Z" fill="#0B0B0B"/>
<path d="M56.5 18.6665V50.5083C56.5 53.5366 54.0348 55.9997 51.0052 55.9997H5.99481C2.96521 55.9997 0.5 53.5366 0.5 50.5083V13.1738H51.0052C54.0348 13.1738 56.5 15.6378 56.5 18.6665Z" fill="#2E2E2F"/>
<path d="M56.5 18.6665V50.5083C56.5 53.5366 54.0348 55.9997 51.0052 55.9997H28.5V13.1738H51.0052C54.0348 13.1738 56.5 15.6378 56.5 18.6665Z" fill="#0B0B0B"/>
<path d="M43.2307 34.5861C43.2307 42.7093 36.6225 49.3179 28.5001 49.3179C20.3777 49.3179 13.7695 42.7093 13.7695 34.5861C13.7695 26.4641 20.3777 19.8555 28.5001 19.8555C36.6225 19.8555 43.2307 26.4641 43.2307 34.5861Z" fill="#D2D3D4"/>
<path d="M43.2306 34.5861C43.2306 42.7093 36.6224 49.3179 28.5 49.3179V19.8555C36.6224 19.8555 43.2306 26.4641 43.2306 34.5861Z" fill="#E4E6E7"/>
<path d="M33.248 34.7674C32.9408 35.0276 32.5644 35.1545 32.1914 35.1545C31.7244 35.1545 31.2604 34.9567 30.9357 34.5713L30.1406 33.6288V39.7995C30.1406 40.7053 29.4057 41.4401 28.5 41.4401C27.5942 41.4401 26.8593 40.7053 26.8593 39.7995V33.6288L26.0642 34.5713C25.4789 35.2639 24.4445 35.3523 23.752 34.7674C23.0598 34.1834 22.971 33.1486 23.555 32.456L26.8025 28.6061C27.2259 28.1053 27.8437 27.8174 28.5 27.8174C29.1562 27.8174 29.774 28.1053 30.1974 28.6061L33.4449 32.456C34.029 33.1486 33.9401 34.1834 33.248 34.7674Z" fill="#0B0B0B"/>
<path d="M33.248 34.7674C32.9408 35.0276 32.5644 35.1545 32.1914 35.1545C31.7244 35.1545 31.2604 34.9567 30.9357 34.5713L30.1406 33.6288V39.7995C30.1406 40.7053 29.4058 41.4401 28.5 41.4401V27.8174C29.1562 27.8174 29.774 28.1053 30.1974 28.6061L33.4449 32.456C34.029 33.1486 33.9401 34.1834 33.248 34.7674Z" fill="#2E2E2F"/>
</g>
<defs>
<clipPath id="clip0_62_1013">
<rect width="56" height="56" fill="white" transform="translate(0.5)"/>
</clipPath>
</defs>
</svg>
